<?xml version="1.0" encoding="utf-8"?>
<!-- Generator: Adobe Illustrator 16.0.0, SVG Export Plug-In . SVG Version: 6.00 Build 0)  -->
<!DOCTYPE svg PUBLIC "-//W3C//DTD SVG 1.1//EN" "http://www.w3.org/Graphics/SVG/1.1/DTD/svg11.dtd">
<svg version="1.1" xmlns="http://www.w3.org/2000/svg" xmlns:xlink="http://www.w3.org/1999/xlink" x="0px" y="0px"
	 width="595.28px" height="841.89px" viewBox="0 0 595.28 841.89" enable-background="new 0 0 595.28 841.89" xml:space="preserve">
<g id="Layer_3">
	<rect x="51.545" y="219.719" fill="#00983A" width="109.263" height="59.037"/>
	<rect x="441.896" y="227.942" fill="#E30613" width="101.039" height="59.918"/>
</g>
<g id="Layer_2">
	<path d="M186.282,801.576c0,0-71.081-37.893-64.324-149.699c0.001-0.041-0.033-0.086-0.059-0.127
		c0.25-3.553,1.616-10.701,8.576-10.619c6.851,0.078,7.717,6.984,7.707,10.566c-0.027,0.059-0.067,0.117-0.069,0.18
		c-0.015,0.615-0.017,1.211-0.031,1.82c-0.005,0.059-0.012,0.109-0.012,0.109h0.01c-2.435,124.205,69.642,147.77,69.642,147.77
		s-34.385-25.85-33.496-147.523h0.012v-1.9c0.002-0.094,0-0.184,0.002-0.275c0,0-0.002,0-0.002-0.004V185.354H34.921l-1.333,467.755
		h0.017c-6.927,142.609,121.837,148.467,121.837,148.467S58.221,762.213,69.78,651.877c0.002-0.018-0.021-0.039-0.024-0.059
		c0.374-2.906,1.903-8.953,8.18-9.035c8.261-0.111,7.851,10.676,7.851,10.676h0.014C82.549,788.734,186.282,801.576,186.282,801.576
		z M143.499,250.009c0.342,1.102,0.527,2.275,0.527,3.49c0,6.488-5.26,11.75-11.749,11.75c-5.33,0-9.824-3.551-11.262-8.414
		L143.499,250.009z M75.042,265.249c-6.489,0-11.749-5.261-11.749-11.75c0-0.978,0.132-1.92,0.357-2.829l22.434,6.812
		C84.45,262.008,80.13,265.249,75.042,265.249z"/>
	<path d="M368.254,166.903C362.734,7.682,194.762,29.301,194.762,29.301s32.487,24.12,32.251,134.288l-0.78,554.642h142.556
		C368.789,718.23,369.41,173.982,368.254,166.903z M270.825,190.173c-6.488,0-11.75-5.259-11.75-11.748
		c0-0.978,0.133-1.922,0.357-2.829l22.434,6.81C280.233,186.933,275.914,190.173,270.825,190.173z M328.062,190.173
		c-5.33,0-9.825-3.55-11.264-8.414l22.484-6.825c0.343,1.103,0.527,2.275,0.527,3.492
		C339.81,184.914,334.55,190.173,328.062,190.173z"/>
	<path d="M561.676,653.109h0.018l-1.334-467.755H421.042v466.519c0,0.004-0.001,0.004-0.001,0.004c0.001,0.092,0,0.182,0.001,0.275
		v1.9h0.013c0.89,121.674-33.496,147.523-33.496,147.523s72.077-23.564,69.642-147.77h0.011c0,0-0.007-0.051-0.012-0.109
		c-0.014-0.609-0.016-1.205-0.031-1.82c-0.002-0.063-0.041-0.121-0.068-0.18c-0.011-3.582,0.854-10.488,7.706-10.566
		c6.96-0.082,8.326,7.066,8.576,10.619c-0.026,0.041-0.061,0.086-0.059,0.127c6.757,111.807-64.324,149.699-64.324,149.699
		s103.733-12.842,100.48-148.117h0.014c0,0-0.409-10.787,7.852-10.676c6.276,0.082,7.807,6.129,8.18,9.035
		c-0.003,0.02-0.025,0.041-0.024,0.059c11.561,110.336-85.661,149.699-85.661,149.699S568.603,795.719,561.676,653.109z
		 M460.987,265.249c-6.49,0-11.75-5.261-11.75-11.75c0-1.215,0.185-2.389,0.527-3.49l22.484,6.826
		C470.811,261.698,466.316,265.249,460.987,265.249z M518.223,265.249c-5.33,0-9.824-3.551-11.261-8.414l22.481-6.826
		c0.344,1.102,0.528,2.275,0.528,3.49C529.972,259.987,524.71,265.249,518.223,265.249z"/>
</g>
</svg>
